<?xml version="1.0" encoding="utf-8"?>
<svg version="1.1" id="Слой_1" xmlns="http://www.w3.org/2000/svg" xmlns:xlink="http://www.w3.org/1999/xlink" x="0px" y="0px"
	 viewBox="-231.5 389.5 105 28" enable-background="new -231.5 389.5 105 28" xml:space="preserve">
<path fill="#FFFFFF" d="M-136.2,389.5l-10.6,19.8l-10.5-19.8l-9.8,0l15.7,28l9.2,0l15.6-28L-136.2,389.5z M-183,410.1
	c6.7,0,9.7-1.3,9.5-6.9c-0.2-4-2.3-6.4-10.1-6.3h-6.8l0,13.2L-183,410.1L-183,410.1z M-179.4,389.5c8.1-0.4,15,5.6,15.4,13.3
	c0.4,7.7-5.9,14.3-14.1,14.6c-0.5,0-0.9,0-1.4,0h-13l-7.2-7.1v-20.8H-179.4z M-212,402.3l9.2-12.8l-10.3,0l-9.3,12.2l0-12.2l-9.1,0
	l0,28l9.2,0l-0.1-13.1l12.8,13l12.7,0L-212,402.3z"/>
</svg>
