<svg xmlns="http://www.w3.org/2000/svg" xmlns:xlink="http://www.w3.org/1999/xlink" width="7" height="11" viewBox="0 0 7 11">
  <metadata><?xpacket begin="﻿" id="W5M0MpCehiHzreSzNTczkc9d"?>
<x:xmpmeta xmlns:x="adobe:ns:meta/" x:xmptk="Adobe XMP Core 5.6-c138 79.159824, 2016/09/14-01:09:01        ">
   <rdf:RDF xmlns:rdf="http://www.w3.org/1999/02/22-rdf-syntax-ns#">
      <rdf:Description rdf:about=""/>
   </rdf:RDF>
</x:xmpmeta>
                                                                                                    
                                                                                                    
                                                                                                    
                                                                                                    
                                                                                                    
                                                                                                    
                                                                                                    
                                                                                                    
                                                                                                    
                                                                                                    
                                                                                                    
                                                                                                    
                                                                                                    
                                                                                                    
                                                                                                    
                                                                                                    
                                                                                                    
                                                                                                    
                                                                                                    
                                                                                                    
                           
<?xpacket end="w"?></metadata>
<defs>
    <style>
      .cls-1 {
        fill: #a9a9a9;
        fill-rule: evenodd;
        filter: url(#filter);
      }
    </style>
    <filter id="filter" x="4025" y="1181" width="7" height="11" filterUnits="userSpaceOnUse">
      <feFlood result="flood" flood-color="#d1d1d1"/>
      <feComposite result="composite" operator="in" in2="SourceGraphic"/>
      <feBlend result="blend" in2="SourceGraphic"/>
    </filter>
  </defs>
  <path id="Фигура_1" data-name="Фигура 1" class="cls-1" d="M4027.86,1181h-1.43a0.636,0.636,0,0,0-.73.56,0.668,0.668,0,0,0,.58.57,1.155,1.155,0,0,1,.81.56c0,0.26.02,0.37,0.02,0.52,0,0.34-.32.49-1.25,1.29a1.766,1.766,0,0,0-.86,1.23v4.86a1.3,1.3,0,0,0,1.43,1.41h2.05v-11h-0.62Zm1.26,0h1.44a0.636,0.636,0,0,1,.73.56,0.668,0.668,0,0,1-.57.57,1.154,1.154,0,0,0-.82.56c0,0.26-.03.37-0.03,0.52,0,0.34.32,0.49,1.27,1.29a1.766,1.766,0,0,1,.86,1.23v4.86a1.307,1.307,0,0,1-1.44,1.41h-2.06v-11h0.62Z" transform="translate(-4025 -1181)"/>
</svg>
